<mxfile host="app.diagrams.net" modified="2024-01-08T08:39:33.154Z" agent="Mozilla/5.0 (Windows NT 10.0; Win64; x64) AppleWebKit/537.36 (KHTML, like Gecko) Chrome/120.0.0.0 Safari/537.36" version="22.1.17" etag="SCPe2U7a0rOzHVtfXmFn" type="github">
  <diagram name="第 1 页" id="u_lo-e_Upth7AfsW1B_P">
    <mxGraphModel>
      <root>
        <mxCell id="0" />
        <mxCell id="1" parent="0" />
      </root>
    </mxGraphModel>
  </diagram>
</mxfile>
